<?xml version="1.0" standalone="no"?>
<!DOCTYPE svg PUBLIC "-//W3C//DTD SVG 20010904//EN"
 "http://www.w3.org/TR/2001/REC-SVG-20010904/DTD/svg10.dtd">
<svg version="1.0" xmlns="http://www.w3.org/2000/svg"
 width="1280.000000pt" height="658.000000pt" viewBox="0 0 1280.000000 658.000000"
 preserveAspectRatio="xMidYMid meet">
<metadata>
Created by potrace 1.15, written by Peter Selinger 2001-2017
</metadata>
<g transform="translate(0.000000,658.000000) scale(0.100000,-0.100000)"
fill="#000000" stroke="none">
<path d="M12297 6569 c-20 -5 -196 -76 -390 -158 -348 -147 -354 -149 -532
-185 -287 -59 -937 -193 -1095 -227 -1562 -329 -3877 -1274 -5420 -2212 -147
-90 -285 -180 -575 -375 -49 -33 -473 -269 -941 -524 l-850 -464 -62 56 c-82
74 -154 116 -260 153 -74 25 -107 30 -217 34 -205 8 -362 -26 -561 -121 -336
-161 -608 -422 -820 -787 -257 -441 -456 -963 -533 -1394 -24 -136 -46 -343
-38 -351 4 -4 24 9 44 27 82 75 231 149 420 209 104 34 405 108 743 185 708
159 1051 303 1286 539 181 182 249 340 261 613 l6 133 171 54 c169 54 439 140
1265 402 234 75 428 137 431 139 4 2 108 25 233 50 1467 295 3605 1136 5187
2038 301 172 634 379 800 498 109 78 1009 600 1095 634 295 120 638 271 680
300 61 41 119 115 148 187 16 40 21 76 21 149 1 90 -1 99 -37 171 -87 178
-275 271 -460 227z"/>
</g>
</svg>
